<svg xmlns="http://www.w3.org/2000/svg" version="1.1" xmlns:xlink="http://www.w3.org/1999/xlink" xmlns:svgjs="http://svgjs.dev/svgjs" width="1000" height="625" viewBox="0 0 1000 625"><g transform="matrix(1,0,0,1,0,0)"><svg viewBox="0 0 512 320" data-background-color="#ffffff" preserveAspectRatio="xMidYMid meet" height="625" width="1000" xmlns="http://www.w3.org/2000/svg" xmlns:xlink="http://www.w3.org/1999/xlink"><g id="tight-bounds" transform="matrix(1,0,0,1,0,0)"><svg viewBox="0 0 512 320" height="320" width="512"><g><svg></svg></g><g><svg viewBox="0 0 512 320" height="320" width="512"><g><path xmlns="http://www.w3.org/2000/svg" d="M96 160c0-88.366 71.634-160 160-160 88.366 0 160 71.634 160 160 0 88.366-71.634 160-160 160-88.366 0-160-71.634-160-160z" fill="#ffffff" fill-rule="nonzero" stroke="none" stroke-width="1" stroke-linecap="butt" stroke-linejoin="miter" stroke-miterlimit="10" stroke-dasharray="" stroke-dashoffset="0" font-family="none" font-weight="none" font-size="none" text-anchor="none" style="mix-blend-mode: normal" data-fill-palette-color="tertiary"></path></g><g transform="matrix(1,0,0,1,76.80000000000001,20)"><svg viewBox="0 0 358.4 280" height="280" width="358.4"><g><svg viewBox="0 0 358.4 280" height="280" width="358.4"><g><svg viewBox="0 0 358.4 280" height="280" width="358.4"><g><svg viewBox="0 0 358.4 280" height="280" width="358.4"><g><svg viewBox="0 0 358.4 280" height="280" width="358.4"><g transform="matrix(1,0,0,1,73.60538734280887,50.57456240594129)"><svg viewBox="0 0 211.18922531438224 178.8508751881174" height="178.8508751881174" width="211.18922531438224"><g><circle r="82" cx="105.59461265719112" cy="89.4254375940587" fill="#ffffff" data-fill-palette-color="accent"></circle></g></svg></g><path d="M48.874 95.11C49.84 94.787 51.056 94.457 52.52 94.121 53.977 93.782 54.961 93.531 55.47 93.368 55.971 93.209 56.256 93.036 56.326 92.849 56.396 92.662 56.351 92.458 56.191 92.236 56.04 92.01 55.433 91.173 54.37 89.725 53.304 88.283 52.516 87.125 52.004 86.25 51.492 85.374 51.293 84.756 51.406 84.393 51.525 84.034 51.691 83.57 51.903 83.001 52.113 82.44 52.376 81.784 52.692 81.034 53.009 80.285 53.394 79.854 53.847 79.744 54.309 79.63 54.879 79.669 55.557 79.864V79.864C57.291 80.4 59.562 81.193 62.37 82.241 65.172 83.286 67.355 84.186 68.92 84.939V84.939C69.296 85.116 69.587 85.39 69.794 85.761 70.008 86.135 70.03 86.548 69.861 87V87C69.512 87.995 69.113 89.093 68.665 90.294 68.215 91.501 67.831 92.45 67.515 93.141V93.141C67.399 93.392 67.212 93.587 66.954 93.726 66.692 93.857 66.404 93.87 66.089 93.768V93.768L62.036 92.42C61.641 92.295 61.389 92.3 61.279 92.436 61.179 92.568 61.232 92.749 61.44 92.981V92.981C62.639 94.4 63.94 96.099 65.341 98.078V98.078C65.697 98.564 65.782 99.055 65.596 99.552 65.408 100.056 65.019 100.381 64.427 100.528V100.528C63.408 100.795 61.335 101.117 58.208 101.495V101.495C58.015 101.519 57.883 101.576 57.812 101.667 57.742 101.758 57.745 101.867 57.824 101.991 57.911 102.112 58.084 102.221 58.342 102.317V102.317L62.295 103.936C62.6 104.064 62.798 104.293 62.889 104.621 62.973 104.946 62.961 105.284 62.853 105.633V105.633L61.956 108.035C61.773 108.467 61.487 108.761 61.098 108.917 60.708 109.073 60.32 109.109 59.933 109.023V109.023C58.445 108.615 56.184 107.844 53.15 106.712 50.122 105.582 47.91 104.709 46.515 104.093V104.093C45.854 103.795 45.384 103.446 45.106 103.049 44.834 102.653 44.823 102.123 45.071 101.458V101.458C46.338 98.062 47.046 96.234 47.195 95.973 47.348 95.721 47.907 95.433 48.874 95.11ZM66.418 60.816V60.816L83.032 61.573C83.693 61.594 84.188 61.712 84.517 61.927 84.84 62.139 84.994 62.425 84.98 62.786 84.972 63.151 84.854 63.507 84.628 63.853V63.853L80.065 70.824C79.601 71.533 79.173 71.903 78.782 71.935V71.935C78.658 71.936 78.452 71.917 78.165 71.877V71.877L76.417 71.623C75.871 71.537 75.343 71.822 74.833 72.476V72.476L72.15 76.575C71.954 76.875 71.831 77.125 71.783 77.324 71.739 77.517 71.784 77.732 71.918 77.968V77.968L73.124 79.956C73.286 80.275 73.359 80.554 73.344 80.791 73.323 81.024 73.205 81.305 72.989 81.634V81.634L71.71 83.589C71.344 84.148 70.944 84.318 70.51 84.1V84.1C70.445 84.074 70.384 84.042 70.326 84.004V84.004C69.992 83.786 69.744 83.471 69.584 83.062V83.062L62.061 68.453C61.364 67.065 61.492 65.642 62.447 64.184V64.184L63.579 62.454C64.338 61.295 65.284 60.749 66.418 60.816ZM67.371 71.458V71.458L68.691 73.743C68.777 73.89 68.871 73.997 68.975 74.065V74.065C69.35 74.31 69.656 74.251 69.894 73.888V73.888L71.184 71.916C71.384 71.611 71.447 71.351 71.373 71.138 71.293 70.921 71.195 70.774 71.08 70.699 70.964 70.623 70.834 70.571 70.688 70.541V70.541L68.291 70.146C67.803 70.074 67.469 70.176 67.287 70.453 67.11 70.724 67.138 71.059 67.371 71.458ZM85.424 45.797V45.797L89.111 49.434C89.658 49.968 90.145 50.279 90.57 50.366 91 50.458 91.472 50.24 91.987 49.712V49.712L96.561 45.02C97.129 44.467 97.84 44.606 98.694 45.439V45.439C99.345 46.073 99.742 46.614 99.884 47.061 100.021 47.512 99.857 47.992 99.39 48.5V48.5C97.742 50.289 96.085 52.038 94.421 53.745 92.761 55.447 90.63 57.609 88.027 60.23V60.23C87.594 60.674 87.132 60.93 86.641 61 86.154 61.065 85.702 60.932 85.284 60.601V60.601C84.112 59.651 82.366 58.045 80.047 55.785 77.733 53.529 76.2 51.977 75.449 51.129 74.693 50.285 74.265 49.648 74.167 49.215 74.069 48.783 74.268 48.312 74.763 47.804V47.804L79.605 42.838C80.11 42.32 80.58 42.109 81.015 42.206 81.45 42.303 81.987 42.63 82.628 43.187 83.268 43.734 84.201 44.604 85.424 45.797ZM105.272 23.746V23.746L120.377 30.706C120.982 30.975 121.396 31.271 121.619 31.594 121.839 31.911 121.874 32.235 121.724 32.564 121.579 32.899 121.336 33.184 120.996 33.419V33.419L114.144 38.158C113.447 38.64 112.911 38.822 112.536 38.704V38.704C112.421 38.658 112.238 38.563 111.987 38.418V38.418L110.463 37.523C109.99 37.239 109.394 37.304 108.675 37.717V37.717L104.645 40.504C104.35 40.708 104.143 40.893 104.024 41.059 103.91 41.222 103.87 41.437 103.906 41.706V41.706L104.274 44.002C104.303 44.359 104.266 44.645 104.163 44.859 104.055 45.067 103.84 45.283 103.517 45.506V45.506L101.596 46.835C101.046 47.215 100.611 47.222 100.292 46.857V46.857C100.241 46.808 100.196 46.755 100.157 46.699V46.699C99.93 46.37 99.819 45.986 99.825 45.546V45.546L98.36 29.179C98.236 27.631 98.891 26.361 100.325 25.37V25.37L102.025 24.194C103.164 23.406 104.247 23.257 105.272 23.746ZM102.145 33.963V33.963L102.508 36.578C102.532 36.746 102.579 36.88 102.65 36.982V36.982C102.904 37.351 103.21 37.412 103.567 37.165V37.165L105.506 35.824C105.806 35.617 105.962 35.4 105.974 35.174 105.981 34.943 105.946 34.77 105.867 34.657 105.789 34.544 105.688 34.446 105.564 34.364V34.364L103.493 33.095C103.068 32.844 102.719 32.812 102.447 33.001 102.181 33.185 102.08 33.506 102.145 33.963ZM131.981 28.989V28.989C129.143 30.238 126.58 30.505 124.292 29.788 122.004 29.071 120.279 27.394 119.119 24.758V24.758C118.408 23.143 118.05 21.611 118.044 20.16 118.038 18.71 118.358 17.41 119.003 16.26V16.26C120.281 13.981 122.484 12.152 125.613 10.775V10.775C127.631 9.887 129.774 9.275 132.043 8.939V8.939C132.93 8.849 133.593 9.303 134.031 10.3V10.3C134.628 11.656 134.498 12.522 133.64 12.9V12.9C133.501 12.961 133.01 13.102 132.166 13.323 131.316 13.547 130.733 13.728 130.418 13.867V13.867C129.295 14.361 128.603 15.132 128.342 16.181 128.081 17.229 128.189 18.296 128.666 19.381 129.141 20.459 129.843 21.283 130.771 21.853 131.703 22.43 132.664 22.519 133.655 22.12V22.12C134.332 21.86 135.515 21.358 137.205 20.614V20.614C138.031 20.25 138.651 20.436 139.066 21.172V21.172C139.241 21.434 139.394 21.713 139.525 22.009 139.652 22.3 139.758 22.607 139.84 22.932V22.932C139.996 23.541 139.736 24.149 139.061 24.754 138.387 25.36 137.346 26.082 135.938 26.92 134.536 27.755 133.217 28.445 131.981 28.989ZM165.784 17.112V17.112C165.842 17.509 165.758 17.893 165.534 18.264 165.309 18.635 164.95 18.896 164.454 19.048V19.048C163.093 19.459 161.969 19.769 161.084 19.976 160.191 20.186 159.131 20.388 157.903 20.584V20.584C156.957 20.714 156.373 20.426 156.151 19.721V19.721C156.07 19.436 155.965 19.064 155.836 18.606 155.714 18.146 155.599 17.745 155.49 17.402 155.38 17.053 155.224 16.796 155.023 16.631 154.814 16.467 154.509 16.433 154.106 16.527V16.527L152.215 16.971C151.812 17.065 151.554 17.232 151.44 17.471 151.326 17.71 151.298 18.01 151.354 18.372 151.416 18.726 151.491 19.137 151.579 19.604 151.674 20.07 151.746 20.45 151.793 20.743V20.743C151.915 21.472 151.523 21.989 150.617 22.293V22.293C149.43 22.663 148.337 22.966 147.337 23.2 146.331 23.436 145.13 23.672 143.734 23.907V23.907C143.223 23.992 142.785 23.917 142.419 23.685 142.053 23.452 141.807 23.145 141.682 22.764V22.764C141.202 21.319 140.577 18.957 139.808 15.676 139.04 12.402 138.575 10.268 138.412 9.273 138.248 8.271 138.241 7.561 138.391 7.144 138.541 6.726 138.971 6.434 139.682 6.267V6.267L145.831 4.826C146.415 4.689 146.962 4.773 147.472 5.078 147.977 5.391 148.304 5.866 148.454 6.504V6.504L149.695 11.797C149.837 12.401 150.169 12.641 150.693 12.518V12.518L153.49 11.862C154.007 11.741 154.194 11.379 154.053 10.775V10.775L152.811 5.482C152.662 4.844 152.747 4.272 153.067 3.766 153.382 3.267 153.834 2.949 154.425 2.81V2.81L160.241 1.446C160.953 1.279 161.468 1.349 161.788 1.657 162.108 1.964 162.417 2.603 162.715 3.573 163.012 4.537 163.544 6.656 164.312 9.93 165.081 13.21 165.572 15.604 165.784 17.112ZM169.17 0.479V0.479L176.09 0.009C176.812-0.04 177.302 0.107 177.56 0.448 177.818 0.797 178.024 1.532 178.176 2.654 178.328 3.777 178.514 5.96 178.734 9.206 178.955 12.451 179.048 14.837 179.014 16.366V16.366C178.992 16.761 178.841 17.124 178.559 17.454 178.278 17.784 177.887 17.983 177.387 18.051V18.051C176.416 18.193 175.285 18.308 173.992 18.396 172.7 18.484 171.473 18.529 170.313 18.532V18.532C169.809 18.531 169.398 18.387 169.082 18.097 168.758 17.808 168.556 17.47 168.474 17.082V17.082C168.233 15.572 168.003 13.194 167.783 9.949 167.562 6.704 167.455 4.515 167.461 3.382 167.46 2.249 167.564 1.493 167.773 1.113 167.976 0.74 168.441 0.529 169.17 0.479ZM202.371 16.957V16.957L202.032 19.101C201.915 19.836 201.352 20.152 200.343 20.048 199.342 19.938 198.256 19.79 197.086 19.605 195.915 19.419 194.588 19.164 193.105 18.838V18.838C192.613 18.725 192.245 18.493 192.001 18.14 191.75 17.786 191.628 17.411 191.635 17.015V17.015C191.738 15.489 192.043 13.12 192.552 9.908 193.061 6.695 193.482 4.365 193.816 2.918 194.151 1.464 195.01 0.84 196.394 1.045V1.045C197.985 1.262 199.686 1.514 201.496 1.801 203.3 2.087 205.249 2.42 207.345 2.801 209.446 3.189 211.039 4.254 212.124 5.996 213.207 7.744 213.603 9.537 213.312 11.375 213.02 13.219 212.195 14.644 210.835 15.65 209.469 16.655 207.653 16.977 205.387 16.618V16.618L203.386 16.301C203.168 16.267 202.951 16.313 202.736 16.439 202.528 16.56 202.407 16.732 202.371 16.957ZM203.807 7.693V7.693L203.108 12.438C203.057 12.758 203.212 12.946 203.573 13.003V13.003C204.628 13.17 205.505 13.009 206.203 12.52 206.903 12.024 207.316 11.377 207.442 10.581 207.569 9.778 207.392 9.042 206.912 8.373 206.432 7.704 205.638 7.281 204.528 7.106V7.106C204.12 7.041 203.88 7.237 203.807 7.693ZM234.202 12.33V12.33L237.145 28.699C237.271 29.349 237.265 29.858 237.128 30.226 236.993 30.587 236.748 30.801 236.393 30.868 236.035 30.94 235.662 30.905 235.275 30.76V30.76L227.467 27.856C226.672 27.56 226.216 27.225 226.098 26.85V26.85C226.07 26.729 226.043 26.525 226.018 26.236V26.236L225.879 24.475C225.841 23.924 225.447 23.472 224.696 23.119V23.119L220.104 21.411C219.768 21.286 219.498 21.222 219.293 21.22 219.095 21.219 218.895 21.311 218.695 21.493V21.493L217.024 23.11C216.748 23.339 216.492 23.471 216.258 23.509 216.025 23.54 215.725 23.488 215.357 23.351V23.351L213.168 22.536C212.541 22.303 212.286 21.951 212.403 21.48V21.48C212.414 21.41 212.432 21.343 212.456 21.279V21.279C212.595 20.904 212.847 20.593 213.21 20.346V20.346L225.79 9.774C226.988 8.786 228.404 8.596 230.038 9.204V9.204L231.976 9.925C233.274 10.408 234.016 11.209 234.202 12.33ZM224.035 15.617V15.617L222.099 17.411C221.976 17.527 221.892 17.643 221.849 17.759V17.759C221.693 18.179 221.818 18.464 222.225 18.616V18.616L224.434 19.437C224.776 19.565 225.043 19.569 225.234 19.449 225.428 19.322 225.549 19.195 225.598 19.065 225.646 18.936 225.668 18.797 225.664 18.649V18.649L225.519 16.224C225.481 15.732 225.307 15.428 224.997 15.313 224.694 15.2 224.373 15.301 224.035 15.617ZM247.805 38.219V38.219C246.77 37.705 245.331 36.882 243.487 35.75 241.649 34.621 240.412 33.825 239.775 33.361 239.144 32.901 238.715 32.472 238.49 32.075 238.269 31.672 238.269 31.256 238.492 30.827V30.827C239.378 29.187 240.446 27.349 241.697 25.311 242.949 23.274 244.303 21.134 245.761 18.891V18.891C246.659 17.494 247.775 17.144 249.11 17.842V17.842C250.044 18.335 251.439 19.152 253.295 20.291 255.145 21.427 256.579 22.344 257.597 23.042 258.616 23.74 259.482 24.608 260.196 25.645 260.904 26.678 261.344 27.72 261.515 28.771V28.771C261.854 30.944 261.445 32.974 260.288 34.858V34.858C259.069 36.843 257.345 38.223 255.115 38.996V38.996C254.031 39.366 252.852 39.495 251.578 39.384 250.301 39.263 249.044 38.875 247.805 38.219ZM253.347 26.982V26.982L250.069 32.32C249.997 32.437 249.974 32.573 250.001 32.727 250.024 32.886 250.109 33.011 250.256 33.102V33.102C251.196 33.679 252.116 33.799 253.018 33.463 253.925 33.131 254.651 32.522 255.196 31.635 255.737 30.754 255.975 29.845 255.912 28.909 255.852 27.966 255.431 27.255 254.65 26.775V26.775C254.462 26.66 254.31 26.579 254.193 26.531V26.531C253.874 26.432 253.592 26.583 253.347 26.982ZM269.557 31.352V31.352L274.899 35.775C275.456 36.237 275.711 36.68 275.663 37.105 275.61 37.536 275.253 38.211 274.591 39.13 273.928 40.048 272.56 41.761 270.486 44.266 268.412 46.771 266.836 48.566 265.759 49.652V49.652C265.471 49.923 265.112 50.082 264.681 50.128 264.249 50.173 263.829 50.049 263.42 49.754V49.754C262.617 49.189 261.718 48.493 260.72 47.667 259.722 46.841 258.801 46.029 257.958 45.233V45.233C257.592 44.885 257.394 44.498 257.364 44.07 257.328 43.638 257.414 43.253 257.622 42.915V42.915C258.487 41.654 259.957 39.771 262.031 37.266 264.105 34.76 265.534 33.099 266.318 32.281 267.097 31.459 267.694 30.982 268.107 30.85 268.511 30.719 268.994 30.886 269.556 31.352ZM282.394 52.673V52.673L278.531 56.121C277.963 56.634 277.623 57.1 277.509 57.518 277.39 57.941 277.577 58.427 278.071 58.974V58.974L282.464 63.837C282.98 64.438 282.796 65.139 281.911 65.938V65.938C281.236 66.548 280.672 66.909 280.217 67.023 279.758 67.131 279.29 66.937 278.812 66.439V66.439C277.13 64.681 275.49 62.917 273.892 61.147 272.299 59.383 270.277 57.119 267.826 54.356V54.356C267.41 53.895 267.183 53.418 267.145 52.923 267.111 52.434 267.273 51.991 267.63 51.594V51.594C268.652 50.485 270.365 48.845 272.768 46.673 275.166 44.507 276.812 43.076 277.706 42.379 278.596 41.678 279.259 41.292 279.697 41.222 280.135 41.151 280.592 41.379 281.067 41.906V41.906L285.717 47.053C286.202 47.589 286.382 48.072 286.258 48.5 286.134 48.928 285.773 49.444 285.177 50.048 284.59 50.652 283.662 51.527 282.394 52.673ZM296.023 71.226V71.226L291.631 73.969C290.984 74.378 290.57 74.78 290.386 75.173 290.197 75.57 290.3 76.08 290.694 76.703V76.703L294.198 82.24C294.604 82.921 294.304 83.58 293.297 84.218V84.218C292.528 84.704 291.91 84.965 291.443 84.999 290.972 85.028 290.543 84.757 290.157 84.186V84.186C288.798 82.167 287.481 80.151 286.206 78.136 284.935 76.127 283.327 73.553 281.381 70.413V70.413C281.049 69.889 280.906 69.38 280.952 68.886 281.002 68.398 281.237 67.989 281.656 67.658V67.658C282.851 66.739 284.818 65.413 287.554 63.681 290.285 61.953 292.15 60.822 293.149 60.287 294.145 59.747 294.864 59.479 295.308 59.484 295.751 59.489 296.163 59.791 296.542 60.391V60.391L300.251 66.252C300.638 66.863 300.734 67.369 300.539 67.77 300.344 68.17 299.901 68.618 299.211 69.112 298.53 69.608 297.467 70.313 296.023 71.226ZM312.88 95.638V95.638L302.613 108.723C302.212 109.249 301.828 109.583 301.462 109.726 301.103 109.866 300.78 109.825 300.494 109.604 300.202 109.385 299.98 109.083 299.83 108.697V108.697L296.806 100.935C296.498 100.145 296.445 99.581 296.647 99.244V99.244C296.718 99.142 296.853 98.986 297.052 98.776V98.776L298.275 97.501C298.661 97.106 298.736 96.511 298.5 95.716V95.716L296.722 91.15C296.592 90.816 296.459 90.572 296.325 90.417 296.193 90.269 295.993 90.181 295.723 90.153V90.153L293.404 89.98C293.05 89.926 292.781 89.824 292.597 89.674 292.419 89.521 292.259 89.262 292.116 88.896V88.896L291.268 86.719C291.025 86.096 291.119 85.672 291.548 85.445V85.445C291.607 85.407 291.669 85.376 291.733 85.351V85.351C292.106 85.206 292.505 85.187 292.932 85.294V85.294L309.193 87.656C310.728 87.894 311.812 88.825 312.445 90.449V90.449L313.195 92.376C313.698 93.666 313.593 94.754 312.88 95.638ZM303.663 90.232V90.232L301.036 89.98C300.867 89.964 300.725 89.979 300.609 90.024V90.024C300.192 90.187 300.062 90.47 300.219 90.875V90.875L301.075 93.071C301.207 93.411 301.382 93.613 301.599 93.676 301.823 93.737 301.999 93.743 302.127 93.693 302.255 93.642 302.374 93.567 302.482 93.465V93.465L304.196 91.744C304.539 91.388 304.65 91.057 304.53 90.749 304.412 90.447 304.123 90.275 303.663 90.232ZM67.963 182.732C67.444 183.609 66.742 184.654 65.856 185.868 64.977 187.078 64.398 187.912 64.12 188.369 63.846 188.817 63.744 189.135 63.814 189.322 63.883 189.509 64.051 189.634 64.318 189.697 64.58 189.768 65.586 190.003 67.338 190.401 69.088 190.792 70.443 191.151 71.403 191.477 72.363 191.802 72.919 192.139 73.071 192.487 73.216 192.837 73.395 193.296 73.607 193.865 73.816 194.426 74.047 195.094 74.299 195.868 74.551 196.642 74.542 197.219 74.272 197.599 73.998 197.988 73.542 198.331 72.902 198.629V198.629C71.241 199.359 69.005 200.248 66.197 201.296 63.395 202.342 61.156 203.093 59.481 203.549V203.549C59.081 203.661 58.682 203.645 58.282 203.5 57.875 203.357 57.588 203.06 57.419 202.608V202.608C57.031 201.628 56.613 200.537 56.165 199.336 55.715 198.129 55.383 197.161 55.169 196.431V196.431C55.092 196.166 55.106 195.896 55.209 195.622 55.322 195.352 55.531 195.153 55.836 195.024V195.024L59.781 193.386C60.161 193.222 60.348 193.053 60.342 192.879 60.332 192.714 60.172 192.612 59.863 192.572V192.572C58.028 192.286 55.933 191.855 53.577 191.278V191.278C52.99 191.144 52.604 190.828 52.418 190.331 52.231 189.827 52.312 189.326 52.663 188.828V188.828C53.258 187.958 54.613 186.357 56.728 184.023V184.023C56.858 183.879 56.92 183.749 56.914 183.633 56.907 183.518 56.834 183.439 56.693 183.396 56.548 183.362 56.346 183.393 56.088 183.489V183.489L52.041 184.856C51.727 184.959 51.427 184.916 51.144 184.728 50.867 184.537 50.655 184.274 50.508 183.939V183.939L49.611 181.537C49.467 181.091 49.49 180.682 49.682 180.308 49.874 179.935 50.144 179.654 50.493 179.465V179.465C51.884 178.799 54.097 177.9 57.132 176.767 60.159 175.637 62.402 174.848 63.86 174.4V174.4C64.555 174.192 65.138 174.147 65.609 174.266 66.073 174.387 66.429 174.779 66.678 175.444V175.444C67.945 178.84 68.608 180.685 68.666 180.98 68.716 181.27 68.481 181.854 67.963 182.732ZM83.673 212.855V212.855L76.331 227.778C76.047 228.376 75.741 228.782 75.412 228.998 75.089 229.209 74.765 229.236 74.439 229.078 74.108 228.924 73.829 228.675 73.603 228.329V228.329L69.04 221.358C68.576 220.649 68.408 220.108 68.535 219.737V219.737C68.584 219.623 68.684 219.442 68.835 219.195V219.195L69.768 217.695C70.064 217.229 70.015 216.631 69.62 215.902V215.902L66.936 211.802C66.74 211.502 66.56 211.291 66.397 211.167 66.238 211.049 66.023 211.004 65.753 211.033V211.033L63.449 211.343C63.091 211.363 62.807 211.318 62.595 211.209 62.39 211.097 62.18 210.876 61.964 210.548V210.548L60.685 208.593C60.319 208.034 60.323 207.599 60.696 207.289V207.289C60.746 207.239 60.8 207.196 60.858 207.158V207.158C61.192 206.939 61.579 206.838 62.019 206.855V206.855L78.417 205.807C79.968 205.723 81.221 206.41 82.176 207.869V207.869L83.308 209.598C84.066 210.757 84.188 211.843 83.673 212.855ZM73.538 209.47V209.47L70.916 209.766C70.747 209.786 70.611 209.829 70.507 209.897V209.897C70.133 210.143 70.064 210.447 70.302 210.81V210.81L71.593 212.782C71.793 213.087 72.005 213.249 72.231 213.266 72.462 213.279 72.635 213.248 72.75 213.173 72.866 213.097 72.966 212.999 73.051 212.877V212.877L74.373 210.839C74.634 210.42 74.674 210.073 74.493 209.796 74.316 209.525 73.998 209.416 73.538 209.47ZM93.012 231.771V231.771L89.282 235.364C88.735 235.897 88.412 236.376 88.314 236.799 88.211 237.226 88.417 237.704 88.931 238.232V238.232L93.506 242.924C94.044 243.506 93.887 244.213 93.033 245.045V245.045C92.382 245.68 91.831 246.063 91.381 246.194 90.926 246.319 90.451 246.143 89.955 245.664V245.664C88.208 243.97 86.502 242.27 84.838 240.563 83.178 238.86 81.072 236.675 78.518 234.006V234.006C78.085 233.562 77.84 233.093 77.783 232.601 77.731 232.113 77.875 231.664 78.217 231.254V231.254C79.196 230.107 80.846 228.402 83.165 226.142 85.479 223.886 87.069 222.393 87.936 221.663 88.798 220.929 89.447 220.518 89.881 220.431 90.316 220.344 90.781 220.554 91.277 221.062V221.062L96.118 226.029C96.623 226.547 96.822 227.022 96.714 227.454 96.606 227.887 96.266 228.416 95.693 229.042 95.129 229.668 94.236 230.578 93.012 231.771ZM117.001 244.257V244.257L115.822 260.846C115.784 261.507 115.653 261.999 115.43 262.322 115.21 262.639 114.92 262.787 114.559 262.763 114.195 262.746 113.842 262.619 113.502 262.384V262.384L106.65 257.646C105.953 257.164 105.593 256.726 105.571 256.334V256.334C105.573 256.21 105.598 256.005 105.645 255.719V255.719L105.944 253.978C106.043 253.435 105.772 252.9 105.131 252.373V252.373L101.101 249.586C100.806 249.382 100.56 249.254 100.362 249.201 100.17 249.152 99.954 249.191 99.715 249.319V249.319L97.697 250.475C97.373 250.628 97.093 250.694 96.856 250.672 96.624 250.646 96.346 250.52 96.023 250.297V250.297L94.101 248.968C93.552 248.588 93.391 248.184 93.62 247.756V247.756C93.648 247.692 93.682 247.631 93.721 247.574V247.574C93.948 247.246 94.269 247.006 94.682 246.857V246.857L109.478 239.708C110.882 239.046 112.302 239.21 113.736 240.202V240.202L115.436 241.377C116.575 242.165 117.097 243.125 117.001 244.257ZM106.338 244.939V244.939L104.02 246.201C103.872 246.283 103.762 246.374 103.691 246.476V246.476C103.437 246.845 103.488 247.152 103.845 247.399V247.399L105.783 248.74C106.084 248.947 106.341 249.017 106.557 248.948 106.776 248.873 106.925 248.779 107.003 248.666 107.081 248.553 107.137 248.423 107.17 248.279V248.279L107.626 245.892C107.711 245.406 107.618 245.069 107.345 244.881 107.079 244.697 106.743 244.716 106.338 244.939ZM126.256 268.982V268.982C123.418 267.733 121.491 266.023 120.474 263.851 119.457 261.679 119.529 259.275 120.69 256.639V256.639C121.4 255.025 122.289 253.725 123.354 252.741 124.42 251.757 125.595 251.115 126.879 250.814V250.814C129.423 250.218 132.259 250.608 135.387 251.985V251.985C137.405 252.873 139.304 254.04 141.085 255.487V255.487C141.749 256.08 141.862 256.875 141.424 257.872V257.872C140.827 259.228 140.1 259.717 139.242 259.34V259.34C139.103 259.278 138.667 259.011 137.934 258.538 137.195 258.062 136.668 257.755 136.353 257.616V257.616C135.23 257.122 134.194 257.133 133.244 257.648 132.295 258.164 131.581 258.964 131.103 260.049 130.629 261.127 130.495 262.201 130.701 263.271 130.905 264.347 131.489 265.116 132.453 265.578V265.578C133.101 265.901 134.27 266.434 135.961 267.178V267.178C136.787 267.542 137.068 268.125 136.805 268.928V268.928C136.731 269.234 136.628 269.535 136.498 269.832 136.37 270.122 136.215 270.407 136.031 270.688V270.688C135.686 271.214 135.063 271.432 134.161 271.344 133.259 271.255 132.023 270.975 130.454 270.503 128.892 270.033 127.492 269.526 126.256 268.982ZM163.521 277.502V277.502C163.396 277.884 163.151 278.19 162.785 278.423 162.419 278.656 161.98 278.73 161.469 278.645V278.645C160.067 278.409 158.923 278.186 158.037 277.979 157.145 277.769 156.105 277.48 154.918 277.109V277.109C154.013 276.805 153.617 276.287 153.732 275.557V275.557C153.786 275.265 153.858 274.886 153.946 274.418 154.041 273.952 154.116 273.541 154.171 273.186 154.228 272.824 154.203 272.525 154.095 272.287 153.982 272.048 153.724 271.882 153.321 271.787V271.787L151.429 271.344C151.027 271.249 150.721 271.284 150.513 271.447 150.305 271.611 150.146 271.867 150.035 272.216 149.933 272.56 149.818 272.962 149.689 273.42 149.567 273.88 149.463 274.251 149.375 274.535V274.535C149.159 275.242 148.579 275.53 147.632 275.401V275.401C146.404 275.205 145.291 274.989 144.291 274.755 143.285 274.519 142.104 274.196 140.749 273.786V273.786C140.254 273.635 139.894 273.373 139.67 273.002 139.445 272.631 139.362 272.247 139.42 271.85V271.85C139.632 270.343 140.122 267.949 140.892 264.668 141.659 261.394 142.192 259.275 142.488 258.312 142.787 257.341 143.096 256.702 143.416 256.395 143.735 256.088 144.251 256.018 144.962 256.184V256.184L151.111 257.626C151.694 257.763 152.147 258.082 152.468 258.582 152.782 259.087 152.864 259.658 152.714 260.296V260.296L151.473 265.589C151.331 266.193 151.522 266.556 152.045 266.679V266.679L154.843 267.335C155.359 267.456 155.689 267.215 155.83 266.611V266.611L157.072 261.318C157.221 260.68 157.552 260.206 158.064 259.894 158.567 259.587 159.114 259.503 159.705 259.642V259.642L165.521 261.006C166.232 261.173 166.663 261.465 166.813 261.882 166.962 262.299 166.955 263.009 166.791 264.011 166.629 265.006 166.163 267.141 165.396 270.415 164.626 273.695 164.001 276.058 163.521 277.502ZM170.733 261.477V261.477L177.652 261.947C178.374 261.996 178.84 262.207 179.049 262.58 179.258 262.961 179.362 263.717 179.361 264.85 179.36 265.982 179.25 268.171 179.029 271.416 178.809 274.661 178.579 277.039 178.338 278.549V278.549C178.263 278.937 178.064 279.276 177.741 279.565 177.417 279.854 177.003 279.998 176.499 279.999V279.999C175.518 280.008 174.381 279.969 173.088 279.881 171.796 279.793 170.574 279.672 169.425 279.518V279.518C168.925 279.45 168.538 279.251 168.263 278.921 167.982 278.592 167.827 278.229 167.799 277.833V277.833C167.764 276.304 167.857 273.918 168.078 270.673 168.298 267.428 168.488 265.244 168.647 264.122 168.799 263 169.004 262.264 169.263 261.916 169.514 261.574 170.004 261.428 170.733 261.477ZM203.388 274.428V274.428L203.728 276.572C203.844 277.307 203.406 277.781 202.415 277.993 201.428 278.199 200.35 278.394 199.179 278.579 198.009 278.765 196.668 278.932 195.156 279.08V279.08C194.654 279.125 194.233 279.017 193.891 278.758 193.543 278.499 193.311 278.18 193.196 277.8V277.8C192.821 276.318 192.38 273.97 191.871 270.758 191.362 267.545 191.043 265.199 190.913 263.72 190.782 262.234 191.406 261.374 192.786 261.142V261.142C194.366 260.857 196.062 260.571 197.872 260.284 199.676 259.998 201.633 259.713 203.743 259.427 205.862 259.147 207.706 259.668 209.276 260.989 210.847 262.317 211.777 263.9 212.069 265.738 212.361 267.582 212.016 269.192 211.034 270.569 210.045 271.946 208.417 272.815 206.151 273.174V273.174L204.15 273.491C203.932 273.525 203.741 273.636 203.575 273.823 203.415 274.001 203.352 274.203 203.388 274.428ZM201.891 265.173V265.173L202.692 269.902C202.743 270.222 202.948 270.353 203.309 270.296V270.296C204.364 270.129 205.148 269.705 205.661 269.023 206.173 268.335 206.366 267.593 206.24 266.797 206.113 265.994 205.717 265.348 205.054 264.86 204.391 264.372 203.504 264.216 202.395 264.392V264.392C201.987 264.457 201.819 264.717 201.891 265.173ZM227.011 253.307V253.307L239.937 263.772C240.457 264.182 240.785 264.571 240.922 264.939 241.057 265.3 241.011 265.623 240.786 265.905 240.562 266.194 240.257 266.411 239.869 266.555V266.555L232.061 269.46C231.267 269.755 230.702 269.8 230.368 269.593V269.593C230.268 269.52 230.113 269.383 229.906 269.18V269.18L228.65 267.938C228.261 267.546 227.668 267.462 226.868 267.686V267.686L222.277 269.394C221.941 269.519 221.694 269.647 221.538 269.779 221.387 269.909 221.296 270.108 221.264 270.377V270.377L221.056 272.693C220.996 273.047 220.89 273.314 220.737 273.496 220.581 273.671 220.32 273.828 219.952 273.964V273.964L217.762 274.779C217.136 275.012 216.712 274.912 216.493 274.479V274.479C216.456 274.419 216.425 274.357 216.401 274.293V274.293C216.262 273.918 216.249 273.518 216.363 273.094V273.094L218.974 256.87C219.235 255.339 220.183 254.27 221.817 253.662V253.662L223.754 252.941C225.053 252.458 226.138 252.58 227.011 253.307ZM221.465 262.439V262.439L221.172 265.063C221.154 265.231 221.167 265.373 221.21 265.49V265.49C221.366 265.91 221.648 266.044 222.055 265.892V265.892L224.263 265.071C224.606 264.943 224.81 264.772 224.877 264.556 224.941 264.333 224.949 264.157 224.901 264.028 224.853 263.899 224.779 263.78 224.68 263.67V263.67L222.984 261.929C222.635 261.581 222.305 261.465 221.995 261.581 221.691 261.693 221.514 261.98 221.465 262.439ZM254.646 257.887V257.887C253.719 258.577 252.334 259.488 250.49 260.621 248.652 261.749 247.382 262.493 246.68 262.851 245.984 263.205 245.408 263.393 244.952 263.414 244.493 263.43 244.122 263.241 243.84 262.848V262.848C242.779 261.317 241.622 259.532 240.371 257.494 239.12 255.457 237.824 253.281 236.484 250.966V250.966C235.644 249.533 235.838 248.379 237.064 247.505V247.505C237.926 246.895 239.285 246.02 241.141 244.881 242.99 243.745 244.457 242.881 245.54 242.288 246.624 241.695 247.79 241.315 249.037 241.148 250.279 240.984 251.407 241.063 252.422 241.386V241.386C254.514 242.066 256.138 243.349 257.296 245.234V245.234C258.514 247.219 258.964 249.381 258.646 251.719V251.719C258.485 252.853 258.067 253.963 257.391 255.049 256.706 256.133 255.791 257.079 254.646 257.887ZM247.131 247.861V247.861L250.409 253.199C250.481 253.316 250.592 253.398 250.741 253.444 250.894 253.495 251.044 253.476 251.191 253.386V253.386C252.13 252.809 252.654 252.042 252.763 251.086 252.877 250.127 252.662 249.204 252.117 248.317 251.576 247.436 250.874 246.812 250.01 246.445 249.142 246.072 248.318 246.126 247.537 246.605V246.605C247.349 246.721 247.207 246.82 247.112 246.902V246.902C246.88 247.142 246.886 247.462 247.131 247.861ZM254.85 235.849V235.849L260.192 231.426C260.749 230.964 261.233 230.797 261.641 230.924 262.055 231.056 262.651 231.533 263.43 232.355 264.209 233.177 265.636 234.841 267.71 237.346 269.784 239.851 271.254 241.734 272.119 242.995V242.995C272.332 243.329 272.421 243.711 272.385 244.144 272.349 244.576 272.148 244.966 271.783 245.313V245.313C271.077 245.995 270.226 246.75 269.228 247.576 268.23 248.402 267.261 249.155 266.321 249.835V249.835C265.912 250.129 265.494 250.251 265.068 250.201 264.637 250.156 264.274 249.999 263.982 249.732V249.732C262.904 248.647 261.329 246.851 259.254 244.346 257.18 241.841 255.815 240.126 255.158 239.203 254.495 238.284 254.138 237.61 254.086 237.179 254.032 236.758 254.287 236.315 254.85 235.849ZM274.531 225.189V225.189L278.353 228.684C278.921 229.196 279.418 229.488 279.847 229.559 280.28 229.635 280.743 229.399 281.238 228.852V228.852L285.631 223.989C286.177 223.415 286.893 223.527 287.777 224.327V224.327C288.452 224.936 288.869 225.462 289.028 225.902 289.183 226.348 289.037 226.834 288.59 227.359V227.359C287.01 229.21 285.422 231.02 283.823 232.789 282.23 234.554 280.182 236.794 277.681 239.512V239.512C277.265 239.972 276.813 240.246 276.324 240.335 275.841 240.418 275.384 240.302 274.953 239.987V239.987C273.746 239.082 271.941 237.544 269.537 235.373 267.139 233.207 265.549 231.714 264.766 230.895 263.978 230.082 263.527 229.46 263.412 229.032 263.298 228.604 263.478 228.126 263.954 227.599V227.599L268.604 222.453C269.089 221.916 269.55 221.688 269.989 221.768 270.427 221.848 270.977 222.154 271.638 222.687 272.299 223.209 273.263 224.044 274.531 225.189ZM287.069 208.072V208.072L291.428 210.868C292.074 211.277 292.615 211.48 293.048 211.477 293.488 211.478 293.905 211.167 294.299 210.544V210.544L297.804 205.007C298.245 204.348 298.969 204.337 299.977 204.975V204.975C300.745 205.461 301.245 205.908 301.477 206.316 301.704 206.729 301.643 207.232 301.292 207.826V207.826C300.049 209.918 298.791 211.971 297.516 213.986 296.244 215.995 294.607 218.551 292.603 221.653V221.653C292.271 222.177 291.872 222.524 291.406 222.694 290.943 222.858 290.473 222.821 289.995 222.584V222.584C288.652 221.898 286.612 220.688 283.875 218.956 281.145 217.228 279.324 216.027 278.413 215.353 277.499 214.684 276.949 214.149 276.763 213.746 276.578 213.343 276.675 212.842 277.054 212.242V212.242L280.763 206.382C281.15 205.77 281.566 205.467 282.012 205.471 282.457 205.476 283.051 205.685 283.793 206.097 284.533 206.5 285.625 207.159 287.069 208.072ZM293.663 181.841V181.841L310.076 179.15C310.727 179.034 311.236 179.047 311.602 179.19 311.962 179.33 312.172 179.578 312.233 179.935 312.3 180.294 312.258 180.666 312.108 181.051V181.051L309.084 188.814C308.776 189.604 308.434 190.055 308.058 190.167V190.167C307.936 190.193 307.731 190.217 307.442 190.238V190.238L305.679 190.349C305.128 190.379 304.67 190.766 304.306 191.512V191.512L302.527 196.077C302.397 196.411 302.329 196.68 302.324 196.885 302.32 197.083 302.408 197.284 302.588 197.487V197.487L304.179 199.183C304.403 199.462 304.532 199.72 304.566 199.955 304.594 200.188 304.537 200.487 304.394 200.853V200.853L303.546 203.029C303.303 203.652 302.947 203.902 302.478 203.778V203.778C302.409 203.766 302.342 203.747 302.278 203.722V203.722C301.905 203.577 301.598 203.321 301.357 202.953V202.953L290.979 190.213C290.009 189 289.841 187.581 290.474 185.957V185.957L291.224 184.03C291.727 182.74 292.54 182.01 293.663 181.841ZM296.794 192.057V192.057L298.559 194.02C298.672 194.146 298.787 194.231 298.903 194.276V194.276C299.32 194.439 299.607 194.318 299.765 193.913V193.913L300.62 191.718C300.753 191.377 300.761 191.11 300.644 190.917 300.521 190.721 300.395 190.598 300.266 190.548 300.138 190.498 299.999 190.474 299.851 190.475V190.475L297.424 190.583C296.931 190.613 296.625 190.782 296.505 191.09 296.388 191.392 296.484 191.715 296.794 192.057ZM48.301 142.483C48.301 141.298 49.262 140.337 50.446 140.337 51.631 140.337 52.592 141.298 52.592 142.483 52.592 143.667 51.631 144.628 50.446 144.628 49.262 144.628 48.301 143.667 48.301 142.483ZM308.78 142.483C308.78 141.298 309.74 140.337 310.925 140.337 312.11 140.337 313.07 141.298 313.07 142.483 313.07 143.667 312.11 144.628 310.925 144.628 309.74 144.628 308.78 143.667 308.78 142.483Z" fill="#000000" data-fill-palette-color="quaternary"></path></svg></g></svg></g></svg></g><g></g></svg></g></svg></g></svg></g><defs></defs></svg><rect width="512" height="320" fill="none" stroke="none" visibility="hidden"></rect></g></svg></g></svg>