<svg id="visual" viewBox="0 0 900 450" width="900" height="450" xmlns="http://www.w3.org/2000/svg" xmlns:xlink="http://www.w3.org/1999/xlink" version="1.1"><path d="M0 269L21.5 271.5C43 274 86 279 128.8 288.8C171.7 298.7 214.3 313.3 257.2 315.2C300 317 343 306 385.8 306.7C428.7 307.3 471.3 319.7 514.2 321.7C557 323.7 600 315.3 642.8 313.7C685.7 312 728.3 317 771.2 310.2C814 303.3 857 284.7 878.5 275.3L900 266L900 451L878.5 451C857 451 814 451 771.2 451C728.3 451 685.7 451 642.8 451C600 451 557 451 514.2 451C471.3 451 428.7 451 385.8 451C343 451 300 451 257.2 451C214.3 451 171.7 451 128.8 451C86 451 43 451 21.5 451L0 451Z" fill="#c1a0ff"></path><path d="M0 353L21.5 343.5C43 334 86 315 128.8 313.7C171.7 312.3 214.3 328.7 257.2 329.5C300 330.3 343 315.7 385.8 315.8C428.7 316 471.3 331 514.2 330.3C557 329.7 600 313.3 642.8 310.2C685.7 307 728.3 317 771.2 319.8C814 322.7 857 318.3 878.5 316.2L900 314L900 451L878.5 451C857 451 814 451 771.2 451C728.3 451 685.7 451 642.8 451C600 451 557 451 514.2 451C471.3 451 428.7 451 385.8 451C343 451 300 451 257.2 451C214.3 451 171.7 451 128.8 451C86 451 43 451 21.5 451L0 451Z" fill="#b28aff"></path><path d="M0 357L21.5 356.8C43 356.7 86 356.3 128.8 352.7C171.7 349 214.3 342 257.2 341.3C300 340.7 343 346.3 385.8 350.2C428.7 354 471.3 356 514.2 353.3C557 350.7 600 343.3 642.8 344C685.7 344.7 728.3 353.3 771.2 357.8C814 362.3 857 362.7 878.5 362.8L900 363L900 451L878.5 451C857 451 814 451 771.2 451C728.3 451 685.7 451 642.8 451C600 451 557 451 514.2 451C471.3 451 428.7 451 385.8 451C343 451 300 451 257.2 451C214.3 451 171.7 451 128.8 451C86 451 43 451 21.5 451L0 451Z" fill="#a374ff"></path><path d="M0 389L21.5 388.3C43 387.7 86 386.3 128.8 386.5C171.7 386.7 214.3 388.3 257.2 389C300 389.7 343 389.3 385.8 384.5C428.7 379.7 471.3 370.3 514.2 371C557 371.7 600 382.3 642.8 384C685.7 385.7 728.3 378.3 771.2 376.7C814 375 857 379 878.5 381L900 383L900 451L878.5 451C857 451 814 451 771.2 451C728.3 451 685.7 451 642.8 451C600 451 557 451 514.2 451C471.3 451 428.7 451 385.8 451C343 451 300 451 257.2 451C214.3 451 171.7 451 128.8 451C86 451 43 451 21.5 451L0 451Z" fill="#9464f3"></path><path d="M0 422L21.5 421.8C43 421.7 86 421.3 128.8 418.3C171.7 415.3 214.3 409.7 257.2 409.7C300 409.7 343 415.3 385.8 416.3C428.7 417.3 471.3 413.7 514.2 412.2C557 410.7 600 411.3 642.8 411.7C685.7 412 728.3 412 771.2 414.2C814 416.3 857 420.7 878.5 422.8L900 425L900 451L878.5 451C857 451 814 451 771.2 451C728.3 451 685.7 451 642.8 451C600 451 557 451 514.2 451C471.3 451 428.7 451 385.8 451C343 451 300 451 257.2 451C214.3 451 171.7 451 128.8 451C86 451 43 451 21.5 451L0 451Z" fill="#8453e8"></path></svg>